<?xml version="1.0" standalone="no"?><!DOCTYPE svg PUBLIC "-//W3C//DTD SVG 1.1//EN" "http://www.w3.org/Graphics/SVG/1.1/DTD/svg11.dtd"><svg t="1585391075219" class="icon" viewBox="0 0 1024 1024" version="1.1" xmlns="http://www.w3.org/2000/svg" p-id="1033" xmlns:xlink="http://www.w3.org/1999/xlink" width="200" height="200"><defs><style type="text/css"></style></defs><path d="M711.6 238.7H214c-37.2 0-67.7 29.8-67.7 66.6v47.2c-32.9 1.4-57.5 27.5-57.5 59.4v351.8c0 32.9 27.3 59.6 60.6 59.6H191c7.2 0 14.9 8.1 23 8.1h497.7c37.2 0 67-33.9 67-70.7V305.3c-0.1-36.8-29.9-66.6-67.1-66.6z" fill="#D0DDEA" p-id="1034"></path><path d="M261.3 847.7H154.5c-49.8 0-90.3-40.1-90.3-89.3v-60.9c0-9 7.4-16.2 16.4-16.2S97 688.6 97 697.5v60.9c0 31.3 25.8 56.8 57.5 56.8h106.8c9.1 0 16.4 7.3 16.4 16.2 0.1 9.1-7.3 16.3-16.4 16.3zM80.6 644.7c-9.1 0-16.4-7.3-16.4-16.2v-48.7c0-9 7.4-16.2 16.4-16.2S97 570.9 97 579.8v48.7c0.1 8.9-7.3 16.2-16.4 16.2zM80.6 531c-9.1 0-16.4-7.3-16.4-16.2v-93.4c0-41.4 28.4-74.9 70.7-83.3 8.9-1.7 17.5 3.9 19.3 12.7 1.8 8.8-4 17.4-12.9 19.1-26.5 5.3-44.3 26-44.3 51.5v93.4c0.1 8.9-7.3 16.2-16.4 16.2z" fill="#5E125C" p-id="1035"></path><path d="M154.9 746.2c-9.1 0-16.4-7.3-16.4-16.2V307.7c0-48.6 38.8-85.3 90.3-85.3 9.1 0 16.4 7.3 16.4 16.2 0 9-7.4 16.2-16.4 16.2-32.8 0-57.5 22.7-57.5 52.8v422.3c0.1 9-7.3 16.3-16.4 16.3z" fill="#5E125C" p-id="1036"></path><path d="M942.9 249v490.9c0 39.3-32.7 75.4-73.6 75.4H146.6c40.8 0 73.6-36 73.6-75.4V249c0-39.3 33.5-67.1 74.3-67.1h574.9c40.8 0 73.5 27.8 73.5 67.1z" fill="#F8F9FB" p-id="1037"></path><path d="M869.4 847.7H146.2v-32.5c32.9 0 57.5-28.5 57.5-60.9V250.9c0-48.6 39.2-85.2 90.7-85.2h574.9c51.5 0 90 36.6 90 85.2v503.5c0 50.5-41 93.3-89.9 93.3z m-655-32.4h654.9c30.6 0 57.1-28.5 57.1-60.9V250.9c0-30.1-24.4-52.7-57.1-52.7H294.4c-32.8 0-57.8 22.6-57.8 52.7v503.5c0 22.9-8.2 44.6-22.2 60.9z" fill="#5E125C" p-id="1038"></path><path d="M861.1 669.1H302.6c-9.1 0-16.4-7.3-16.4-16.2 0-9 7.4-16.2 16.4-16.2h558.5c9.1 0 16.4 7.3 16.4 16.2 0.1 8.9-7.3 16.2-16.4 16.2zM705.1 766.5H302.6c-9.1 0-16.4-7.3-16.4-16.2 0-9 7.4-16.2 16.4-16.2H705c9.1 0 16.4 7.3 16.4 16.2 0.1 9-7.2 16.2-16.3 16.2zM861.1 571.7H302.6c-9.1 0-16.4-7.3-16.4-16.2 0-9 7.4-16.2 16.4-16.2h558.5c9.1 0 16.4 7.3 16.4 16.2 0.1 8.9-7.3 16.2-16.4 16.2z" fill="#D0DDEA" p-id="1039"></path><path d="M861.1 376.8h-271c-9.1 0-16.4-7.3-16.4-16.2s7.4-16.2 16.4-16.2h271c9.1 0 16.4 7.3 16.4 16.2s-7.3 16.2-16.4 16.2zM787.2 474.2H590.1c-9.1 0-16.4-7.3-16.4-16.2s7.4-16.2 16.4-16.2h197.1c9.1 0 16.4 7.3 16.4 16.2s-7.3 16.2-16.4 16.2zM861.1 279.3h-271c-9.1 0-16.4-7.3-16.4-16.2s7.4-16.2 16.4-16.2h271c9.1 0 16.4 7.3 16.4 16.2s-7.3 16.2-16.4 16.2z" fill="#D0DDEA" p-id="1040"></path><path d="M508.1 474.2H302.8c-8 0-16.4-8.3-16.4-15.5V259.8c0-7.2 5.9-13 13.2-13H509c7.3 0 15.6 9.1 15.6 16.2v194.9c-0.1 7.2-9.2 16.3-16.5 16.3z" fill="#D0DDEA" p-id="1041"></path></svg>